<svg xmlns="http://www.w3.org/2000/svg" width="1200" height="900" viewBox="0 0 1200 900" role="img">

  <defs>
    <linearGradient id="bg-smoked-boerewors" x1="0" y1="0" x2="0.35" y2="1">
      <stop offset="0" stop-color="#13100E"/>
      <stop offset="0.55" stop-color="#1C1714"/>
      <stop offset="1" stop-color="#0A0908"/>
    </linearGradient>
    <radialGradient id="key-smoked-boerewors" cx="0.5" cy="0.48999999999999994" r="0.62">
      <stop offset="0" stop-color="#DE5A1C" stop-opacity="0.5"/>
      <stop offset="0.45" stop-color="#F7A03C" stop-opacity="0.16"/>
      <stop offset="1" stop-color="#0A0908" stop-opacity="0"/>
    </radialGradient>
    <radialGradient id="vig-smoked-boerewors" cx="0.5" cy="0.48" r="0.78">
      <stop offset="0.45" stop-color="#000000" stop-opacity="0"/>
      <stop offset="1" stop-color="#000000" stop-opacity="0.72"/>
    </radialGradient>
    <linearGradient id="metal-smoked-boerewors" x1="0" y1="0" x2="1" y2="1">
      <stop offset="0" stop-color="#E8E4DE"/>
      <stop offset="0.4" stop-color="#9A948C"/>
      <stop offset="0.62" stop-color="#C9C3BB"/>
      <stop offset="1" stop-color="#5E5852"/>
    </linearGradient>
    <linearGradient id="board-smoked-boerewors" x1="0" y1="0" x2="0.6" y2="1">
      <stop offset="0" stop-color="#54392B"/>
      <stop offset="1" stop-color="#3A2A20"/>
    </linearGradient>
    <linearGradient id="meat-smoked-boerewors" x1="0.15" y1="0" x2="0.85" y2="1">
      <stop offset="0" stop-color="#C9634C"/>
      <stop offset="0.45" stop-color="#A8352B"/>
      <stop offset="1" stop-color="#661913"/>
    </linearGradient>
    <linearGradient id="meatDark-smoked-boerewors" x1="0.2" y1="0" x2="0.8" y2="1">
      <stop offset="0" stop-color="#A8352B"/>
      <stop offset="0.6" stop-color="#661913"/>
      <stop offset="1" stop-color="#4A120E"/>
    </linearGradient>
    <linearGradient id="bone-smoked-boerewors" x1="0" y1="0" x2="0.4" y2="1">
      <stop offset="0" stop-color="#EFE2CB"/>
      <stop offset="1" stop-color="#C9B795"/>
    </linearGradient>
    <linearGradient id="cream-smoked-boerewors" x1="0" y1="0" x2="0.5" y2="1">
      <stop offset="0" stop-color="#FBF3E6"/>
      <stop offset="1" stop-color="#D9C7AC"/>
    </linearGradient>
    <linearGradient id="ember-smoked-boerewors" x1="0" y1="0" x2="0" y2="1">
      <stop offset="0" stop-color="#E8B15A"/>
      <stop offset="0.5" stop-color="#F7A03C"/>
      <stop offset="1" stop-color="#DE5A1C"/>
    </linearGradient>
    <filter id="soft-smoked-boerewors" x="-30%" y="-30%" width="160%" height="160%">
      <feGaussianBlur stdDeviation="18"/>
    </filter>
    <filter id="softer-smoked-boerewors" x="-40%" y="-40%" width="180%" height="180%">
      <feGaussianBlur stdDeviation="40"/>
    </filter>
    <filter id="shadow-smoked-boerewors" x="-30%" y="-30%" width="160%" height="160%">
      <feDropShadow dx="0" dy="26" stdDeviation="22" flood-color="#000000" flood-opacity="0.55"/>
    </filter>
    <filter id="grain-smoked-boerewors" x="0" y="0" width="100%" height="100%">
      <feTurbulence type="fractalNoise" baseFrequency="0.85" numOctaves="2" seed="0.0021402910351753235" result="n"/>
      <feColorMatrix in="n" type="saturate" values="0"/>
    </filter>
  </defs>
  <rect width="1200" height="900" fill="url(#bg-smoked-boerewors)"/>
  <rect width="1200" height="900" fill="url(#key-smoked-boerewors)"/>

  <ellipse cx="600" cy="680" rx="320" ry="51.2" fill="#000" opacity="0.45" filter="url(#SOFT)"/>
  <g filter="url(#shadow-smoked-boerewors)">
    <g transform="rotate(-10 600 460)">
      <path d="M340 400 C340 356 392 330 470 336 L900 372 C968 380 992 424 972 462 C952 500 900 512 838 504 L410 452 C366 446 340 436 340 400 Z" fill="#4E1F16"/>
      <path d="M340 400 C340 356 392 330 470 336 L900 372" stroke="#8B4230" stroke-opacity="0.7" stroke-width="6" fill="none"/>
      <path d="M470 336 L468 452 M700 354 L698 470 M880 372 L878 500" stroke="#E4A97F" stroke-opacity="0.55" stroke-width="8" fill="none"/>
      <path d="M340 400 C340 356 392 330 470 336" stroke="#D98A6C" stroke-opacity="0.4" stroke-width="5" fill="none"/>
    </g>
    <g stroke="#F3E7D3" stroke-opacity="0.14" stroke-width="16" stroke-linecap="round" fill="none">
      <path d="M470 260 C560 220 660 300 740 254"/>
      <path d="M520 200 C610 164 700 232 776 194"/>
    </g>
  </g>
  <rect width="1200" height="900" fill="url(#vig-smoked-boerewors)"/>
  <rect width="1200" height="900" filter="url(#grain-smoked-boerewors)" opacity="0.075" style="mix-blend-mode:overlay"/>
</svg>
